<?xml version="1.0" encoding="UTF-8"?> <svg xmlns="http://www.w3.org/2000/svg" id="Слой_1" data-name="Слой 1" viewBox="0 0 172.75 172.75"> <defs> <style>.cls-1,.cls-2,.cls-3,.cls-4,.cls-6{fill:none;stroke-linecap:round;stroke-linejoin:round;}.cls-1{stroke:#fff;}.cls-1,.cls-2,.cls-3,.cls-4{stroke-width:0.75px;}.cls-2,.cls-5,.cls-6{stroke:#273271;}.cls-3,.cls-4{stroke:#40bfff;}.cls-3{stroke-dasharray:1.01 2.01;}.cls-5,.cls-7{fill:#fff;}.cls-5{stroke-miterlimit:10;}.cls-6{stroke-width:2px;}.cls-8{fill:#273271;opacity:0.18;}</style> </defs> <title>i03</title> <circle class="cls-1" cx="86.38" cy="86.38" r="86"></circle> <g id="Квантовые_технологии" data-name="Квантовые технологии"> <path class="cls-2" d="M64.12,100.88c-8.17,20.89-8.85,40.43-1.62,50.8" transform="translate(-13.63 -13.63)"></path> <path class="cls-2" d="M136.43,100.78c9.94-25.34,8.86-48.71-4-56.18-8.47-4.93-20.29-2-32.16,6.76" transform="translate(-13.63 -13.63)"></path> <path class="cls-2" d="M130.43,113.78a125.32,125.32,0,0,0,6-13" transform="translate(-13.63 -13.63)"></path> <path class="cls-2" d="M72.49,158.73c7.93,2,17.85-1.24,27.81-8.54" transform="translate(-13.63 -13.63)"></path> <path class="cls-3" d="M100.29,133.66c30.92,0,56.74-11.15,62.91-26" transform="translate(-13.63 -13.63)"></path> <path class="cls-4" d="M36,100.77c0,18.16,28.79,32.88,64.32,32.88" transform="translate(-13.63 -13.63)"></path> <path class="cls-4" d="M37.28,94.15A17.83,17.83,0,0,0,36,100.77" transform="translate(-13.63 -13.63)"></path> <path class="cls-3" d="M100.29,67.9c-31.08,0-57,11.27-63,26.25" transform="translate(-13.63 -13.63)"></path> <path class="cls-4" d="M163.54,94.76C158,79.47,131.79,67.9,100.29,67.9" transform="translate(-13.63 -13.63)"></path> <path class="cls-5" d="M106.07,100.92a5.77,5.77,0,1,1-5.78-5.82,5.8,5.8,0,0,1,5.78,5.82" transform="translate(-13.63 -13.63)"></path> <path class="cls-2" d="M106.07,100.92a5.77,5.77,0,1,1-5.78-5.82A5.8,5.8,0,0,1,106.07,100.92Z" transform="translate(-13.63 -13.63)"></path> <path class="cls-2" d="M169.83,100.92a5.77,5.77,0,1,1-5.77-5.82A5.8,5.8,0,0,1,169.83,100.92Z" transform="translate(-13.63 -13.63)"></path> <path class="cls-2" d="M72.79,156.5A5.78,5.78,0,1,1,67,150.67,5.8,5.8,0,0,1,72.79,156.5Z" transform="translate(-13.63 -13.63)"></path> <path class="cls-6" d="M132.46,157c-15.59,9.08-42.64-8.71-60.4-39.73C57,90.91,53.45,63.53,62.22,50.28" transform="translate(-13.63 -13.63)"></path> <path class="cls-2" d="M72.37,42.85c15.91-4.2,39.92,13.11,56.16,41.49,14.43,25.21,18.3,51.39,10.88,65.2" transform="translate(-13.63 -13.63)"></path> <path class="cls-7" d="M77.17,45.11A10.57,10.57,0,1,1,66.6,34.45,10.62,10.62,0,0,1,77.17,45.11Z" transform="translate(-13.63 -13.63)"></path> <path class="cls-8" d="M77.17,45.11A10.57,10.57,0,1,1,66.6,34.45,10.62,10.62,0,0,1,77.17,45.11Z" transform="translate(-13.63 -13.63)"></path> <path class="cls-6" d="M77.17,45.11A10.57,10.57,0,1,1,66.6,34.45,10.62,10.62,0,0,1,77.17,45.11Z" transform="translate(-13.63 -13.63)"></path> </g> <circle class="cls-7" cx="50.49" cy="28.6" r="2.89"></circle> </svg> 