<?xml version="1.0" encoding="UTF-8"?> <svg xmlns="http://www.w3.org/2000/svg" id="Слой_1" data-name="Слой 1" viewBox="0 0 172.75 172.75"> <defs> <style>.cls-1,.cls-10,.cls-2,.cls-3,.cls-7,.cls-9{fill:none;}.cls-1{stroke:#fff;}.cls-1,.cls-10,.cls-11,.cls-2,.cls-3,.cls-4,.cls-9{stroke-linecap:round;stroke-linejoin:round;}.cls-1,.cls-10,.cls-11,.cls-2,.cls-7,.cls-9{stroke-width:0.75px;}.cls-10,.cls-2{stroke:#40bfff;}.cls-11,.cls-3,.cls-4,.cls-7,.cls-9{stroke:#273271;}.cls-3,.cls-4{stroke-width:2px;}.cls-11,.cls-4,.cls-6{fill:#fff;}.cls-5,.cls-8{fill:#273271;}.cls-5{opacity:0.18;}.cls-7{stroke-miterlimit:10;}.cls-10{stroke-dasharray:1.01 2.01;}</style> </defs> <title>i09</title> <circle class="cls-1" cx="86.38" cy="86.38" r="86"></circle> <path class="cls-2" d="M123.92,115.78H67.33a26.92,26.92,0,1,1,0-53.84,27,27,0,0,1,42.12-22.32" transform="translate(-13.63 -13.63)"></path> <path class="cls-2" d="M137.81,61.94a26.91,26.91,0,0,1,10.52,51.72" transform="translate(-13.63 -13.63)"></path> <polygon class="cls-3" points="120.97 122.01 120.97 84.3 131.67 93.6 121.42 102.64 121.42 103.54 131.67 112.57 120.97 122.01"></polygon> <line class="cls-3" x1="111.3" y1="94.86" x2="121.41" y2="103.54"></line> <line class="cls-3" x1="111.3" y1="111.31" x2="121.41" y2="102.64"></line> <rect class="cls-4" x="57.99" y="56.15" width="46.46" height="90.99" rx="8.68" ry="8.68"></rect> <path class="cls-5" d="M108,72.53h-1.33a1.79,1.79,0,0,0-1.67,1c-.82,1.87-1.68,3.18-3.85,3.18H89c-2.17,0-3-1.31-3.85-3.18a1.81,1.81,0,0,0-1.67-1H81.84a7.09,7.09,0,0,0-6.94,7.21v70.42a7.1,7.1,0,0,0,6.94,7.22H108a7.1,7.1,0,0,0,6.94-7.22V79.74A7.09,7.09,0,0,0,108,72.53Z" transform="translate(-13.63 -13.63)"></path> <polygon class="cls-6" points="101.28 131.79 101.28 142.92 61.23 106.43 61.23 95.3 101.28 131.79"></polygon> <polygon class="cls-6" points="101.17 121.41 101.37 127.42 61.26 89.91 61.27 84.11 101.17 121.41"></polygon> <path class="cls-7" d="M108,72.53h-1.33a1.79,1.79,0,0,0-1.67,1c-.82,1.87-1.68,3.18-3.85,3.18H89c-2.17,0-3-1.31-3.85-3.18a1.81,1.81,0,0,0-1.67-1H81.84a7.09,7.09,0,0,0-6.94,7.21v70.42a7.1,7.1,0,0,0,6.94,7.22H108a7.1,7.1,0,0,0,6.94-7.22V79.74A7.09,7.09,0,0,0,108,72.53Z" transform="translate(-13.63 -13.63)"></path> <circle class="cls-8" cx="76.19" cy="60.27" r="0.52"></circle> <line class="cls-9" x1="87.36" y1="60.27" x2="78.36" y2="60.27"></line> <line class="cls-3" x1="90.19" y1="50.9" x2="90.19" y2="43.17"></line> <line class="cls-3" x1="83.73" y1="50.9" x2="83.73" y2="43.17"></line> <line class="cls-3" x1="96.07" y1="50.9" x2="96.07" y2="38.89"></line> <line class="cls-3" x1="101.96" y1="50.9" x2="101.96" y2="34.61"></line> <line class="cls-3" x1="107.84" y1="50.9" x2="107.84" y2="30.33"></line> <line class="cls-3" x1="113.72" y1="50.9" x2="113.72" y2="26.06"></line> <polygon class="cls-3" points="78.85 38.59 88.62 38.59 83.73 43.47 78.85 38.59"></polygon> <path class="cls-10" d="M137.41,67.7a21.83,21.83,0,0,1,21.84,21.83" transform="translate(-13.63 -13.63)"></path> <circle class="cls-11" cx="48.86" cy="108.67" r="26.74"></circle> <path class="cls-3" d="M47.33,117.36a21.08,21.08,0,0,1,31.3,0" transform="translate(-13.63 -13.63)"></path> <path class="cls-3" d="M57.13,126.78a7.87,7.87,0,0,1,11.7,0" transform="translate(-13.63 -13.63)"></path> <path class="cls-3" d="M51.84,122.41a15,15,0,0,1,22.28,0" transform="translate(-13.63 -13.63)"></path> <circle class="cls-8" cx="49.4" cy="119.06" r="2.23"></circle> </svg> 