<?xml version="1.0" encoding="UTF-8"?> <svg xmlns="http://www.w3.org/2000/svg" id="Слой_1" data-name="Слой 1" viewBox="0 0 172.75 172.75"> <defs> <style>.cls-1,.cls-2,.cls-3,.cls-4,.cls-6,.cls-8{fill:none;stroke-linecap:round;}.cls-1{stroke:#fff;}.cls-1,.cls-2,.cls-3,.cls-4,.cls-6{stroke-linejoin:round;}.cls-1,.cls-2,.cls-3,.cls-4,.cls-8{stroke-width:0.75px;}.cls-2,.cls-3{stroke:#40bfff;}.cls-2{stroke-dasharray:1.01 2.01;}.cls-4,.cls-6,.cls-8{stroke:#273271;}.cls-5{fill:#273271;opacity:0.18;}.cls-6{stroke-width:2px;}.cls-7{fill:#fff;}.cls-8{stroke-miterlimit:10;stroke-dasharray:1.08 2.08;}</style> </defs> <title>i01</title> <circle class="cls-1" cx="86.38" cy="86.38" r="86"></circle> <line class="cls-2" x1="84.81" y1="153.01" x2="84.81" y2="168.04"></line> <line class="cls-3" x1="84.81" y1="128.46" x2="84.81" y2="150.43"></line> <line class="cls-4" x1="89.22" y1="128.32" x2="89.22" y2="148.36"></line> <line class="cls-4" x1="93.89" y1="128.32" x2="93.89" y2="144.63"></line> <line class="cls-4" x1="93.89" y1="151.73" x2="93.89" y2="158.7"></line> <path class="cls-2" d="M114.08,148.44c2.86,6-1.27,10.63-4.12,12.06-10.55,5.31-7.64,11.82-7.64,11.82" transform="translate(-13.63 -13.63)"></path> <path class="cls-3" d="M112.23,142c-.16.9.06,2.75,1.85,6.49a8.92,8.92,0,0,1-3,11.38" transform="translate(-13.63 -13.63)"></path> <path class="cls-4" d="M92.8,141.94c-.16.9,0,2.75,1.85,6.5,2.86,6-1.27,10.63-4.12,12.06-10.55,5.31-7.64,11.82-7.64,11.82" transform="translate(-13.63 -13.63)"></path> <path class="cls-4" d="M72,118.67h36.35a0,0,0,0,1,0,0v7.95a1.71,1.71,0,0,1-1.71,1.71H73.75A1.71,1.71,0,0,1,72,126.61v-7.95A0,0,0,0,1,72,118.67Z"></path> <line class="cls-4" x1="70.92" y1="67.03" x2="70.92" y2="73.43"></line> <line class="cls-4" x1="70.92" y1="51.19" x2="70.92" y2="53.19"></line> <line class="cls-4" x1="70.92" y1="33.57" x2="70.92" y2="36.77"></line> <line class="cls-4" x1="83.89" y1="67.03" x2="83.89" y2="73.43"></line> <line class="cls-4" x1="83.91" y1="50.99" x2="83.91" y2="53.29"></line> <line class="cls-4" x1="83.91" y1="25.49" x2="83.91" y2="28.7"></line> <line class="cls-4" x1="97.25" y1="67.22" x2="97.25" y2="72.84"></line> <line class="cls-4" x1="97.11" y1="50.69" x2="97.11" y2="52.69"></line> <line class="cls-4" x1="97.25" y1="31.66" x2="97.25" y2="34.87"></line> <line class="cls-4" x1="111.37" y1="67.05" x2="111.37" y2="72.84"></line> <line class="cls-4" x1="111.37" y1="50.69" x2="111.37" y2="52.69"></line> <line class="cls-4" x1="111.39" y1="37.79" x2="111.39" y2="40.57"></line> <rect class="cls-4" x="66.15" y="53.29" width="9.39" height="13.74"></rect> <rect class="cls-4" x="79.2" y="53.29" width="9.39" height="13.74"></rect> <rect class="cls-4" x="92.76" y="53.3" width="9.39" height="13.74"></rect> <rect class="cls-4" x="106.68" y="53.3" width="9.39" height="13.74"></rect> <path class="cls-5" d="M70.05,19.72h1.62a3.89,3.89,0,0,1,3.89,3.89v9.85a0,0,0,0,1,0,0H66.17a0,0,0,0,1,0,0V23.61A3.89,3.89,0,0,1,70.05,19.72Z"></path> <path class="cls-5" d="M83.1,11.37h1.62a3.89,3.89,0,0,1,3.89,3.89v9.85a0,0,0,0,1,0,0H79.21a0,0,0,0,1,0,0V15.26A3.89,3.89,0,0,1,83.1,11.37Z"></path> <path class="cls-5" d="M96.67,17.64h1.62a3.89,3.89,0,0,1,3.89,3.89v9.85a0,0,0,0,1,0,0H92.78a0,0,0,0,1,0,0V21.53a3.89,3.89,0,0,1,3.89-3.89Z"></path> <path class="cls-5" d="M110.58,23.91h1.62a3.89,3.89,0,0,1,3.89,3.89v9.85a0,0,0,0,1,0,0h-9.39a0,0,0,0,1,0,0V27.8A3.89,3.89,0,0,1,110.58,23.91Z"></path> <path class="cls-6" d="M70.86,19.72h0a4.7,4.7,0,0,1,4.7,4.7v9a0,0,0,0,1,0,0H66.17a0,0,0,0,1,0,0v-9A4.7,4.7,0,0,1,70.86,19.72Z"></path> <path class="cls-6" d="M83.91,11.37h0a4.7,4.7,0,0,1,4.7,4.7v9a0,0,0,0,1,0,0H79.21a0,0,0,0,1,0,0v-9A4.7,4.7,0,0,1,83.91,11.37Z"></path> <path class="cls-6" d="M97.47,17.64h0a4.7,4.7,0,0,1,4.7,4.7v9a0,0,0,0,1,0,0H92.78a0,0,0,0,1,0,0v-9A4.7,4.7,0,0,1,97.47,17.64Z"></path> <path class="cls-6" d="M111.39,23.91h0a4.7,4.7,0,0,1,4.7,4.7v9a0,0,0,0,1,0,0h-9.39a0,0,0,0,1,0,0v-9a4.7,4.7,0,0,1,4.7-4.7Z"></path> <rect class="cls-4" x="66.16" y="36.76" width="9.39" height="13.74"></rect> <rect class="cls-4" x="79.21" y="28.77" width="9.39" height="21.74"></rect> <rect class="cls-4" x="92.77" y="35.04" width="9.39" height="15.48"></rect> <rect class="cls-4" x="106.68" y="41.13" width="9.39" height="9.39"></rect> <line class="cls-4" x1="55.15" y1="90.17" x2="59.18" y2="94.19"></line> <line class="cls-4" x1="37.72" y1="72.84" x2="41.76" y2="76.85"></line> <path class="cls-5" d="M43.31,78.42a5.86,5.86,0,0,0,0,8.28l7.94,8V78.14A5.84,5.84,0,0,0,43.31,78.42Z" transform="translate(-13.63 -13.63)"></path> <polygon class="cls-5" points="42.08 68.23 42.07 84.93 55.14 105.81 55.15 82.85 42.08 68.23"></polygon> <path class="cls-6" d="M43.31,78.42a5.86,5.86,0,0,0,0,8.28l7.94,8V78.14A5.84,5.84,0,0,0,43.31,78.42Z" transform="translate(-13.63 -13.63)"></path> <polygon class="cls-6" points="42.08 68.23 42.07 84.93 55.14 105.81 55.15 82.85 42.08 68.23"></polygon> <path class="cls-4" d="M78.38,95.75V87.06l52.88,0,0,38.47a6.76,6.76,0,0,1-6.76,6.75l-44.93,0" transform="translate(-13.63 -13.63)"></path> <path class="cls-4" d="M72.8,96.13h28.75a5.17,5.17,0,0,1,5.17,5.17v31a0,0,0,0,1,0,0H72.8a0,0,0,0,1,0,0V96.13A0,0,0,0,1,72.8,96.13Z" transform="translate(165.85 214.83) rotate(-179.98)"></path> <path class="cls-5" d="M72.8,96.13h28.75a5.17,5.17,0,0,1,5.17,5.17v31a0,0,0,0,1,0,0H72.8a0,0,0,0,1,0,0V96.13A0,0,0,0,1,72.8,96.13Z" transform="translate(165.85 214.83) rotate(-179.98)"></path> <rect class="cls-7" x="79.7" y="82.51" width="4.21" height="36.15"></rect> <rect class="cls-7" x="85.6" y="82.51" width="2.1" height="36.15"></rect> <path class="cls-6" d="M72.8,96.13h28.75a5.17,5.17,0,0,1,5.17,5.17v31a0,0,0,0,1,0,0H72.8a0,0,0,0,1,0,0V96.13A0,0,0,0,1,72.8,96.13Z" transform="translate(165.85 214.83) rotate(-179.98)"></path> <path class="cls-8" d="M76.29,99.83v22A6.75,6.75,0,0,0,83,128.58h8.69" transform="translate(-13.63 -13.63)"></path> <path class="cls-4" d="M76.29,111.78v10A6.75,6.75,0,0,0,83,128.58" transform="translate(-13.63 -13.63)"></path> <circle class="cls-7" cx="69.76" cy="24.06" r="1.21"></circle> <circle class="cls-7" cx="83.06" cy="15.6" r="1.21"></circle> <circle class="cls-7" cx="96.35" cy="21.64" r="1.21"></circle> <circle class="cls-7" cx="110.84" cy="27.69" r="1.21"></circle> </svg> 