<?xml version="1.0" encoding="UTF-8"?> <svg xmlns="http://www.w3.org/2000/svg" id="Слой_1" data-name="Слой 1" viewBox="0 0 172.75 172.75"> <defs> <style>.cls-1,.cls-4,.cls-5,.cls-6,.cls-7,.cls-8{fill:none;stroke-linecap:round;stroke-linejoin:round;}.cls-1{stroke:#fff;}.cls-1,.cls-5,.cls-6,.cls-7,.cls-8{stroke-width:0.75px;}.cls-2{fill:#273271;opacity:0.18;}.cls-3{fill:#fff;}.cls-4,.cls-5,.cls-6{stroke:#273271;}.cls-4{stroke-width:2px;}.cls-5,.cls-8{stroke-dasharray:1.01 2.01;}.cls-7,.cls-8{stroke:#40bfff;}</style> </defs> <title>i07</title> <circle class="cls-1" cx="86.38" cy="86.38" r="86"></circle> <path class="cls-2" d="M138.91,89.26h-4v-5a4.81,4.81,0,0,0-4.8-4.8H69.22a4.81,4.81,0,0,0-4.8,4.8v5h-4a.87.87,0,0,0-.88.87v14.73a.87.87,0,0,0,.88.87h4v5a4.8,4.8,0,0,0,4.8,4.8H93.53A2.8,2.8,0,0,0,96.06,114l.86-1.71A3,3,0,0,1,101,110.9a3.13,3.13,0,0,1,1.37,1.37l.85,1.71a2.81,2.81,0,0,0,2.54,1.56h24.3a4.8,4.8,0,0,0,4.8-4.8v-5h4a.87.87,0,0,0,.87-.87V90.13A.87.87,0,0,0,138.91,89.26Z" transform="translate(-13.63 -13.63)"></path> <rect class="cls-3" x="96.72" y="65.82" width="5.6" height="36.1"></rect> <rect class="cls-3" x="104.36" y="65.82" width="2.8" height="36.1"></rect> <path class="cls-4" d="M138.91,89.26h-4v-5a4.81,4.81,0,0,0-4.8-4.8H69.22a4.81,4.81,0,0,0-4.8,4.8v5h-4a.87.87,0,0,0-.88.87v14.73a.87.87,0,0,0,.88.87h4v5a4.8,4.8,0,0,0,4.8,4.8H93.53A2.8,2.8,0,0,0,96.06,114l.86-1.71A3,3,0,0,1,101,110.9a3.13,3.13,0,0,1,1.37,1.37l.85,1.71a2.81,2.81,0,0,0,2.54,1.56h24.3a4.8,4.8,0,0,0,4.8-4.8v-5h4a.87.87,0,0,0,.87-.87V90.13A.87.87,0,0,0,138.91,89.26Z" transform="translate(-13.63 -13.63)"></path> <path class="cls-5" d="M127.13,84.35h-21.7" transform="translate(-13.63 -13.63)"></path> <path class="cls-6" d="M103,84.35H72.16a2.84,2.84,0,0,0-2.83,2.84v2.94" transform="translate(-13.63 -13.63)"></path> <line class="cls-6" x1="50.73" y1="77.85" x2="50.73" y2="89.49"></line> <line class="cls-6" x1="121.16" y1="77.85" x2="121.16" y2="89.49"></line> <circle class="cls-6" cx="113.75" cy="94.39" r="3.2"></circle> <circle class="cls-3" cx="113.31" cy="93.65" r="0.99"></circle> <path class="cls-6" d="M128,138c-5.22,17.69-14,29.32-24.08,29.32-16,0-29-29.77-29-66.5s13-66.5,29-66.5c10,0,18.86,11.63,24.08,29.32" transform="translate(-13.63 -13.63)"></path> <path class="cls-5" d="M128,138c-5.22,17.69-14,29.32-24.08,29.32-16,0-29-29.77-29-66.5s13-66.5,29-66.5c10,0,18.86,11.63,24.08,29.32" transform="translate(-13.63 -13.63)"></path> <path class="cls-7" d="M138.66,74.27C156.35,79.49,168,88.33,168,98.35c0,16-29.77,29-66.5,29s-66.5-13-66.5-29" transform="translate(-13.63 -13.63)"></path> <path class="cls-8" d="M138.66,74.27C156.35,79.49,168,88.33,168,98.35c0,16-29.77,29-66.5,29s-66.5-13-66.5-29c0-10,11.63-18.86,29.32-24.08" transform="translate(-13.63 -13.63)"></path> <polyline class="cls-6" points="108.31 127.73 114.83 123.87 118.7 130.4"></polyline> <polyline class="cls-7" points="127.79 67.22 124.41 60.44 131.19 57.05"></polyline> </svg> 