<?xml version="1.0" encoding="UTF-8"?> <svg xmlns="http://www.w3.org/2000/svg" id="Слой_1" data-name="Слой 1" viewBox="0 0 172.75 172.75"> <defs> <style>.cls-1,.cls-2,.cls-3,.cls-4,.cls-5,.cls-8{fill:none;stroke-linecap:round;stroke-linejoin:round;}.cls-1{stroke:#fff;}.cls-1,.cls-2,.cls-3,.cls-4,.cls-8{stroke-width:0.75px;}.cls-2,.cls-4,.cls-5{stroke:#273271;}.cls-3,.cls-8{stroke:#40bfff;}.cls-4,.cls-8{stroke-dasharray:1.01 2.01;}.cls-5{stroke-width:2px;}.cls-6{fill:#273271;opacity:0.18;}.cls-7{fill:#fff;}</style> </defs> <title>i08</title> <circle class="cls-1" cx="86.38" cy="86.38" r="86"></circle> <path class="cls-2" d="M117,128.75" transform="translate(-13.63 -13.63)"></path> <polyline class="cls-3" points="119.68 123.62 84.6 142.07 49.51 123.62"></polyline> <line class="cls-3" x1="49.51" y1="123.62" x2="49.51" y2="115.12"></line> <line class="cls-3" x1="84.6" y1="133.57" x2="84.6" y2="142.07"></line> <line class="cls-3" x1="119.68" y1="115.12" x2="119.68" y2="123.62"></line> <polygon class="cls-3" points="119.68 115.12 84.6 133.57 49.51 115.12 84.6 96.81 119.68 115.12"></polygon> <polyline class="cls-3" points="119.68 132.21 84.6 150.66 49.51 132.21"></polyline> <line class="cls-3" x1="49.51" y1="132.21" x2="49.51" y2="123.71"></line> <line class="cls-3" x1="84.6" y1="142.16" x2="84.6" y2="150.66"></line> <line class="cls-3" x1="119.68" y1="123.71" x2="119.68" y2="132.21"></line> <line class="cls-2" x1="84.6" y1="85.5" x2="103.4" y2="95.31"></line> <polyline class="cls-4" points="71.48 92.34 84.6 85.5 103.4 95.31"></polyline> <polyline class="cls-5" points="107.15 97.27 119.68 103.81 84.6 122.25 49.51 103.81 67.97 94.18"></polyline> <polygon class="cls-6" points="119.68 95.7 84.6 114.54 84.6 122.25 119.68 103.42 119.68 95.7"></polygon> <polygon class="cls-7" points="92.8 118 90.32 118.99 90.32 110.98 92.8 109.99 92.8 118"></polygon> <polygon class="cls-7" points="95.88 115.17 94.64 116.15 94.64 108.14 95.88 107.16 95.88 115.17"></polygon> <line class="cls-5" x1="49.51" y1="103.81" x2="49.51" y2="95.31"></line> <line class="cls-5" x1="84.6" y1="113.75" x2="84.6" y2="122.25"></line> <line class="cls-5" x1="119.68" y1="95.31" x2="119.68" y2="103.81"></line> <line class="cls-2" x1="84.6" y1="77" x2="84.6" y2="85.5"></line> <line class="cls-5" x1="119.68" y1="103.81" x2="84.6" y2="122.25"></line> <polygon class="cls-5" points="119.68 95.31 84.6 113.75 49.51 95.31 84.6 77 119.68 95.31"></polygon> <line class="cls-3" x1="78.88" y1="43.5" x2="37" y2="43.5"></line> <line class="cls-3" x1="72.48" y1="54.88" x2="37" y2="54.88"></line> <line class="cls-3" x1="110.24" y1="43.5" x2="89.13" y2="43.5"></line> <line class="cls-8" x1="131.35" y1="43.5" x2="110.24" y2="43.5"></line> <line class="cls-3" x1="131.35" y1="54.88" x2="95.63" y2="54.88"></line> <rect class="cls-5" x="72.88" y="48" width="22.38" height="16.07"></rect> <path class="cls-2" d="M97.74,54.82v-.57a6.06,6.06,0,0,1,6.06-6.06h9.14A6.06,6.06,0,0,0,119,42.13h0a6.06,6.06,0,0,0-6.06-6.06H88.38" transform="translate(-13.63 -13.63)"></path> <line class="cls-4" x1="72.88" y1="22.44" x2="64.17" y2="22.44"></line> <rect class="cls-2" x="78.88" y="41.19" width="10.25" height="6.81"></rect> <rect class="cls-2" x="78.88" y="65.07" width="10.25" height="3.55"></rect> <line class="cls-2" x1="84.44" y1="68.63" x2="84.44" y2="76.13"></line> <circle class="cls-2" cx="84.07" cy="56.04" r="6"></circle> <circle class="cls-2" cx="84.07" cy="56.04" r="3.96"></circle> </svg> 