<?xml version="1.0" encoding="UTF-8"?> <svg xmlns="http://www.w3.org/2000/svg" id="Слой_1" data-name="Слой 1" viewBox="0 0 172.75 172.75"> <defs> <style>.cls-1,.cls-2,.cls-4,.cls-5,.cls-7,.cls-8{fill:none;stroke-linecap:round;stroke-linejoin:round;}.cls-1{stroke:#fff;}.cls-1,.cls-2,.cls-4,.cls-5,.cls-8{stroke-width:0.75px;}.cls-2,.cls-7,.cls-8,.cls-9{stroke:#273271;}.cls-3,.cls-9{fill:#fff;}.cls-4,.cls-5{stroke:#40bfff;}.cls-5{stroke-dasharray:1.01 2.01;}.cls-6{fill:#273271;opacity:0.18;}.cls-7{stroke-width:2px;}.cls-8{stroke-dasharray:0.97 1.96;}.cls-9{stroke-miterlimit:10;}</style> </defs> <title>i04</title> <circle class="cls-1" cx="86.38" cy="86.38" r="86"></circle> <path class="cls-2" d="M27.24,83.28" transform="translate(-13.63 -13.63)"></path> <g id="AI"> <path class="cls-3" d="M39.86,96.26A20.71,20.71,0,0,1,37.18,86a20.29,20.29,0,0,1,20-20.52,20.07,20.07,0,0,1,40.12,1.2V127a20.07,20.07,0,1,1-40.12,0,20.28,20.28,0,0,1-20-20.51,20.79,20.79,0,0,1,2.68-10.27Z" transform="translate(-13.63 -13.63)"></path> <path class="cls-4" d="M57.23,66.69a20.07,20.07,0,1,1,40.12,0V127a20.07,20.07,0,1,1-40.12,0" transform="translate(-13.63 -13.63)"></path> <path class="cls-4" d="M57.23,127a20.29,20.29,0,0,1-20.06-20.52,20.78,20.78,0,0,1,2.69-10.26" transform="translate(-13.63 -13.63)"></path> <path class="cls-4" d="M39.86,96.26A20.71,20.71,0,0,1,37.18,86a20.29,20.29,0,0,1,20-20.52" transform="translate(-13.63 -13.63)"></path> <line class="cls-5" x1="43.61" y1="53.07" x2="43.61" y2="64.72"></line> <path class="cls-5" d="M65.19,93.36a17.11,17.11,0,0,0,9.56,2.9" transform="translate(-13.63 -13.63)"></path> <path class="cls-4" d="M57.23,78.34a18,18,0,0,0,8,15" transform="translate(-13.63 -13.63)"></path> <path class="cls-6" d="M160.26,96.26A20.82,20.82,0,0,0,162.94,86a20.29,20.29,0,0,0-20.06-20.52,20.06,20.06,0,0,0-40.11,1.2V127a20.06,20.06,0,1,0,40.11,0,20.29,20.29,0,0,0,20.06-20.51,20.79,20.79,0,0,0-2.69-10.27Z" transform="translate(-13.63 -13.63)"></path> <path class="cls-7" d="M142.88,66.69a20.06,20.06,0,1,0-40.11,0V127a20.06,20.06,0,1,0,40.11,0" transform="translate(-13.63 -13.63)"></path> <path class="cls-7" d="M142.88,127a20.29,20.29,0,0,0,20.06-20.52,20.78,20.78,0,0,0-2.69-10.26" transform="translate(-13.63 -13.63)"></path> <path class="cls-7" d="M160.26,96.26A20.82,20.82,0,0,0,162.94,86a20.29,20.29,0,0,0-20.06-20.52" transform="translate(-13.63 -13.63)"></path> <path class="cls-8" d="M134.93,93.36a17.14,17.14,0,0,1-9.57,2.9" transform="translate(-13.63 -13.63)"></path> <path class="cls-2" d="M142.88,78.34a18,18,0,0,1-7.95,15" transform="translate(-13.63 -13.63)"></path> <path class="cls-6" d="M82.77,65.49a5.48,5.48,0,1,1-5.48-5.6,5.54,5.54,0,0,1,5.48,5.6" transform="translate(-13.63 -13.63)"></path> <path class="cls-2" d="M82.77,65.49a5.48,5.48,0,1,1-5.48-5.6A5.54,5.54,0,0,1,82.77,65.49Z" transform="translate(-13.63 -13.63)"></path> <path class="cls-9" d="M128.31,65.49a5.48,5.48,0,1,1-5.49-5.6,5.55,5.55,0,0,1,5.49,5.6" transform="translate(-13.63 -13.63)"></path> <path class="cls-7" d="M128.31,65.49a5.48,5.48,0,1,1-5.49-5.6A5.55,5.55,0,0,1,128.31,65.49Z" transform="translate(-13.63 -13.63)"></path> <line class="cls-2" x1="69.15" y1="51.86" x2="89.14" y2="51.86"></line> <line class="cls-5" x1="63.67" y1="133.94" x2="63.67" y2="148.24"></line> <line class="cls-2" x1="63.67" y1="119.03" x2="63.67" y2="126.56"></line> <line class="cls-8" x1="109.2" y1="133.94" x2="109.2" y2="148.24"></line> <line class="cls-8" x1="109.2" y1="119.02" x2="109.2" y2="125.54"></line> <path class="cls-6" d="M82.77,127a5.48,5.48,0,1,1-5.48-5.6,5.54,5.54,0,0,1,5.48,5.6" transform="translate(-13.63 -13.63)"></path> <path class="cls-2" d="M82.77,127a5.48,5.48,0,1,1-5.48-5.6A5.54,5.54,0,0,1,82.77,127Z" transform="translate(-13.63 -13.63)"></path> <path class="cls-9" d="M128.31,127a5.48,5.48,0,1,1-5.49-5.6,5.55,5.55,0,0,1,5.49,5.6" transform="translate(-13.63 -13.63)"></path> <path class="cls-2" d="M128.31,127a5.48,5.48,0,1,1-5.49-5.6A5.55,5.55,0,0,1,128.31,127Z" transform="translate(-13.63 -13.63)"></path> <line class="cls-2" x1="63.67" y1="46.26" x2="63.67" y2="41.83"></line> <line class="cls-7" x1="109.2" y1="46.26" x2="109.2" y2="41.83"></line> <line class="cls-2" x1="89.14" y1="113.42" x2="69.15" y2="113.42"></line> <line class="cls-8" x1="103.72" y1="113.42" x2="89.14" y2="113.42"></line> <line class="cls-2" x1="86.38" y1="83.24" x2="97.74" y2="83.24"></line> <path class="cls-2" d="M118.51,96.87a3.57,3.57,0,1,1-3.57-3.66A3.62,3.62,0,0,1,118.51,96.87Z" transform="translate(-13.63 -13.63)"></path> </g> <path class="cls-9" d="M153.84,109.62a5.48,5.48,0,1,1-5.48-5.6,5.54,5.54,0,0,1,5.48,5.6" transform="translate(-13.63 -13.63)"></path> <circle class="cls-3" cx="62.05" cy="50.25" r="1.62"></circle> <circle class="cls-3" cx="100.62" cy="82.64" r="1.62"></circle> <circle class="cls-3" cx="62.05" cy="111.95" r="1.62"></circle> </svg> 