<?xml version="1.0" encoding="UTF-8"?> <svg xmlns="http://www.w3.org/2000/svg" id="Слой_1" data-name="Слой 1" viewBox="0 0 172.75 172.75"> <defs> <style>.cls-1,.cls-12,.cls-2,.cls-3,.cls-4,.cls-5{fill:none;}.cls-1{stroke:#fff;}.cls-1,.cls-10,.cls-2,.cls-3,.cls-4,.cls-5,.cls-6,.cls-7{stroke-linecap:round;stroke-linejoin:round;}.cls-1,.cls-10,.cls-2,.cls-3,.cls-4,.cls-7{stroke-width:0.75px;}.cls-12,.cls-2,.cls-3,.cls-4,.cls-5,.cls-6,.cls-7,.cls-8{stroke:#273271;}.cls-3{stroke-dasharray:1.01 2.01;}.cls-4{stroke-dasharray:0.97 1.96;}.cls-12,.cls-5,.cls-6{stroke-width:2px;}.cls-10,.cls-11,.cls-6,.cls-7,.cls-8{fill:#fff;}.cls-12,.cls-8{stroke-miterlimit:10;}.cls-9{fill:#273271;opacity:0.18;}.cls-10{stroke:#40bfff;}</style> </defs> <title>i05</title> <circle class="cls-1" cx="86.38" cy="86.38" r="86"></circle> <line class="cls-2" x1="64.5" y1="110.45" x2="39.28" y2="112.93"></line> <line class="cls-2" x1="112.32" y1="28.1" x2="39.28" y2="112.93"></line> <line class="cls-3" x1="46.72" y1="41.87" x2="112.32" y2="28.1"></line> <line class="cls-2" x1="46.72" y1="41.87" x2="77.91" y2="35.32"></line> <line class="cls-2" x1="118.02" y1="67.2" x2="46.72" y2="41.87"></line> <line class="cls-2" x1="133.32" y1="92.53" x2="118.02" y2="67.2"></line> <line class="cls-4" x1="105.01" y1="145.94" x2="133.32" y2="92.53"></line> <line class="cls-2" x1="105.01" y1="145.94" x2="123.17" y2="111.69"></line> <line class="cls-2" x1="64.5" y1="110.45" x2="105.01" y2="145.94"></line> <line class="cls-2" x1="88.45" y1="92.53" x2="105.01" y2="145.94"></line> <line class="cls-2" x1="112.32" y1="28.1" x2="88.45" y2="92.53"></line> <line class="cls-5" x1="46.72" y1="41.87" x2="88.45" y2="92.53"></line> <line class="cls-2" x1="39.28" y1="112.93" x2="105.01" y2="145.94"></line> <line class="cls-2" x1="46.72" y1="41.87" x2="39.28" y2="112.93"></line> <line class="cls-2" x1="133.32" y1="92.53" x2="88.45" y2="92.53"></line> <circle class="cls-6" cx="39.28" cy="112.93" r="10.41"></circle> <circle class="cls-7" cx="112.32" cy="28.1" r="6.47"></circle> <circle class="cls-8" cx="46.72" cy="41.87" r="6.47"></circle> <circle class="cls-9" cx="46.72" cy="41.87" r="6.47"></circle> <circle class="cls-10" cx="118.02" cy="67.2" r="6.47"></circle> <circle class="cls-11" cx="88.45" cy="92.53" r="17.41"></circle> <circle class="cls-9" cx="88.45" cy="92.53" r="17.41"></circle> <circle class="cls-12" cx="88.45" cy="92.53" r="17.41"></circle> <circle class="cls-11" cx="83.85" cy="86.95" r="5.94"></circle> <circle class="cls-11" cx="45.5" cy="40.85" r="2.97"></circle> <circle class="cls-7" cx="133.32" cy="92.53" r="5.94"></circle> <circle class="cls-7" cx="105.01" cy="145.94" r="6.22"></circle> <circle class="cls-10" cx="64.5" cy="109.93" r="5.05"></circle> </svg> 